#N canvas 298 150 732 445 10;
#X obj 90 67 inlet;
#X obj 90 89 openpanel;
#X obj 90 215 soundfiler;
#N canvas 664 292 536 319 (subpatch) 0;
#X array \$0-soundfile_l 7.938e+07 float 2;
#X coords 0 319 7.938e+07 318 200 140 0;
#X restore 419 170 graph;
#X obj 90 111 t s b, f 8;
#X obj 90 161 pack s f;
#X obj 135 136 f \$0;
#X obj 369 57 inlet;
#X obj 369 111 outlet~;
#X text 318 39 bang to play loaded file;
#X text 38 49 bang to load new sound file;
#X text 184 74 specify your own filepath;
#N canvas 0 22 450 278 (subpatch) 0;
#X array \$0-soundfile_r 7.938e+07 float 2;
#X coords 0 278 7.938e+07 277 200 140 0;
#X restore 419 194 graph;
#X obj 369 89 tabplay~ \$0-soundfile_l;
#X obj 519 111 outlet~;
#X obj 519 89 tabplay~ \$0-soundfile_r;
#X text 458 170 \$0-soundfile_l;
#X text 458 195 \$0-soundfile_r;
#X obj 241 95 inlet s;
#X msg 90 183 read -resize -maxsize 1.5876e+08 \$1 \$2-soundfile_l
\$2-soundfile_r;
#X text 92 338 load stereo sample into a local array and play it back
from the beginning.;
#X connect 0 0 1 0;
#X connect 1 0 4 0;
#X connect 4 0 5 0;
#X connect 4 1 6 0;
#X connect 5 0 19 0;
#X connect 6 0 5 1;
#X connect 7 0 13 0;
#X connect 7 0 15 0;
#X connect 13 0 8 0;
#X connect 15 0 14 0;
#X connect 18 0 4 0;
#X connect 19 0 2 0;
