#N canvas 0 23 450 300 10;
#X obj 116 170 == 0;
#X obj 83 191 spigot;
#X obj 33 191 spigot;
#X obj 44 55 inlet;
#X obj 44 77 t b b b;
#X obj 33 224 timer;
#X obj 33 246 outlet;
#X obj 116 115 f;
#X obj 116 137 == 0;
#X text 87 26 wrapper for the timer object to adapt to serial input.
;
#X text 87 46 listens on first bang \, outputs delay on second \, listens
on 3rd \, outputs delay on 4th \, etc.;
#X connect 0 0 1 1;
#X connect 1 0 5 1;
#X connect 2 0 5 0;
#X connect 3 0 4 0;
#X connect 4 0 2 0;
#X connect 4 1 1 0;
#X connect 4 2 7 0;
#X connect 5 0 6 0;
#X connect 7 0 8 0;
#X connect 8 0 0 0;
#X connect 8 0 7 1;
#X connect 8 0 2 1;
