#N canvas 0 23 450 300 10;
#X obj 145 80 inlet;
#X obj 145 212 metro;
#X obj 185 80 inlet;
#X obj 212 153 == 0;
#X obj 185 132 t f f;
#X obj 185 174 +, f 5;
#X obj 145 234 outlet;
#X obj 227 80 loadbang;
#X obj 227 101 f \$1;
#X text 24 31 wrapper for the metro object \, limits input delay to
[1 \, infinity);
#X connect 0 0 1 0;
#X connect 1 0 6 0;
#X connect 2 0 4 0;
#X connect 3 0 5 1;
#X connect 4 0 5 0;
#X connect 4 1 3 0;
#X connect 5 0 1 1;
#X connect 7 0 8 0;
#X connect 8 0 4 0;
