#N canvas 418 120 388 330 10;
#X obj 102 179 * -65536;
#X obj 172 180 * -256;
#X obj 243 180 * -1;
#X obj 102 148 int;
#X obj 172 148 int;
#X obj 243 148 int;
#X obj 102 213 expr $f1 + $f2 + $f3 - 1;
#X obj 102 235 outlet;
#X obj 102 86 inlet;
#X obj 102 108 unpack f f f, f 24;
#X text 90 23 takes (R \, G \, B) triples \, 0-255;
#X text 90 43 and converts to pd's native colourspace;
#X connect 0 0 6 0;
#X connect 1 0 6 1;
#X connect 2 0 6 2;
#X connect 3 0 0 0;
#X connect 4 0 1 0;
#X connect 5 0 2 0;
#X connect 6 0 7 0;
#X connect 8 0 9 0;
#X connect 9 0 3 0;
#X connect 9 1 4 0;
#X connect 9 2 5 0;
